<?xml version="1.0" standalone="no"?>
<!DOCTYPE svg PUBLIC "-//W3C//DTD SVG 1.1//EN" "http://www.w3.org/Graphics/SVG/1.1/DTD/svg11.dtd" >
<svg xmlns="http://www.w3.org/2000/svg" xmlns:xlink="http://www.w3.org/1999/xlink" version="1.1">
<metadata></metadata>
<defs>
<font id="webfontregular" horiz-adv-x="555" >
<font-face units-per-em="1000" ascent="740" descent="-260" />
<missing-glyph horiz-adv-x="277" />
<glyph unicode=" "  horiz-adv-x="277" />
<glyph unicode="&#x09;" horiz-adv-x="277" />
<glyph unicode="&#xa0;" horiz-adv-x="277" />
<glyph unicode="!" horiz-adv-x="259" d="M145 740v-574h-30v574h30zM145 81v-81h-30v81h30z" />
<glyph unicode="&#x22;" horiz-adv-x="333" d="M124 444h-30v296h30v-296zM239 444h-30v296h30v-296z" />
<glyph unicode="#" d="M361 271l-34 -240h-24l33 240h-143l-33 -240h-25l34 240h-151v23h154l19 137h-151v23h155l31 221h24l-31 -221h143l31 221h24l-31 -221h151v-23h-155l-19 -137h152v-23h-154zM339 294l20 137h-143l-20 -137h143z" />
<glyph unicode="$" d="M296 810v-80q78 -10 117 -56.5t44 -105.5h-30q-8 69 -53 102t-91 33q-54 0 -97.5 -40t-43.5 -104q0 -29 9.5 -52t22 -36.5t38 -25.5t42.5 -18t51 -15q24 -7 38.5 -12t42.5 -20t44 -33t29.5 -50t13.5 -72q0 -71 -50 -126.5t-127 -60.5v-95h-30v95q-76 7 -127.5 59 t-55.5 130h30q7 -79 57.5 -119.5t112.5 -40.5q67 0 113.5 46.5t46.5 112.5q0 28 -6.5 51t-21.5 39.5t-28 27.5t-39.5 21t-41.5 15t-46 14q-148 41 -148 165q0 68 42.5 115t111.5 56v80h30z" />
<glyph unicode="%" horiz-adv-x="719" d="M22 590v1q0 70 46.5 116t116.5 46q71 0 117 -46.5t46 -116.5t-46 -116.5t-117 -46.5t-117 46.5t-46 116.5zM50 590v-1q0 -60 37.5 -98.5t97.5 -38.5t97.5 39t37.5 99t-37.5 99t-97.5 39t-97.5 -39t-37.5 -99zM371 150v1q0 70 46.5 116t116.5 46t116.5 -46.5t46.5 -116.5 t-46.5 -116.5t-116.5 -46.5t-116.5 46.5t-46.5 116.5zM399 150v-1q0 -60 37.5 -98.5t97.5 -38.5t97.5 39t37.5 99t-37.5 99t-97.5 39t-97.5 -39t-37.5 -99zM603 740l-457 -740h-32l457 740h32z" />
<glyph unicode="&#x26;" horiz-adv-x="721" d="M612 467h31l-136 -261l192 -197l-21 -20l-185 189q-52 -104 -102 -147.5t-134 -43.5q-88 0 -145 63t-57 144q0 46 18.5 85t50 67t62.5 46.5t67 32.5q-8 8 -28 30t-29 32.5t-21.5 29.5t-18 38t-6.5 41q0 64 45 110.5t111 46.5q68 0 116 -48t48 -113q0 -30 -10.5 -54.5 t-23 -40t-40 -32.5t-43.5 -25t-52 -24l185 -189zM307 723h-1q-57 0 -91.5 -38.5t-34.5 -84.5q0 -20 5 -37.5t19.5 -38t20.5 -28.5t30 -32l26 -26q92 40 125.5 69.5t33.5 85.5q0 52 -38 91t-95 39zM471 199l-198 205q-107 -47 -147 -98.5t-41 -112.5q1 -71 49.5 -124.5 t125.5 -53.5q74 0 119.5 43.5t91.5 140.5z" />
<glyph unicode="'" horiz-adv-x="222" d="M126 444h-30v296h30v-296z" />
<glyph unicode="(" horiz-adv-x="425" d="M393 753v-35q-112 -69 -185 -198t-73 -279q0 -151 73 -280t185 -198v-37q-137 89 -213.5 222t-76.5 293q0 157 80 296.5t210 215.5z" />
<glyph unicode=")" horiz-adv-x="425" d="M32 -274v34q112 70 185 199t73 279t-73.5 279.5t-184.5 198.5v37q137 -90 213.5 -222.5t76.5 -292.5q0 -157 -80 -297t-210 -215z" />
<glyph unicode="*" horiz-adv-x="573" d="M301 740v-123l106 62l14 -25l-105 -61l107 -63l-14 -24l-108 61v-123h-29v124l-106 -62l-15 25l107 62l-107 60l15 26l106 -62v123h29z" />
<glyph unicode="+" horiz-adv-x="600" d="M314 501v-237h236v-28h-236v-236h-28v236h-236v28h236v237h28z" />
<glyph unicode="," horiz-adv-x="277" d="M156 82l-63 -154h-32l63 154h32z" />
<glyph unicode="-" horiz-adv-x="266" d="M0 291h266v-29h-266v29z" />
<glyph unicode="." horiz-adv-x="277" d="M154 81v-81h-30v81h30z" />
<glyph unicode="/" horiz-adv-x="518" d="M67 -100l351 840h33l-351 -840h-33z" />
<glyph unicode="0" d="M39 222v287q0 61 19.5 107.5t47 71.5t62.5 40.5t60 20t46 4.5q101 0 171 -65.5t70 -169.5v-296q0 -54 -18.5 -97t-45.5 -68t-61 -41.5t-61.5 -22.5t-49.5 -6q-36 0 -74.5 12t-77 37t-63.5 73.5t-25 112.5zM69 512v-290q0 -96 61.5 -152t146.5 -56q24 0 50 6t54.5 21 t51 38t37.5 60t15 83v296q0 82 -54.5 145t-156.5 63q-85 0 -145 -56.5t-60 -157.5z" />
<glyph unicode="1" d="M275 0v713h-164v27h194v-740h-30z" />
<glyph unicode="2" d="M57 0v27l267 273l27 27t30 30.5t26 29t26.5 34t19 33t15.5 38.5t6 39q1 85 -53 140t-135 55q-77 0 -131 -55t-56 -157h-30q3 119 74 183q60 56 147 56q93 0 154 -64.5t60 -162.5q-3 -51 -28.5 -93t-80.5 -103q-198 -202 -298 -303h407v-27h-447z" />
<glyph unicode="3" d="M126 585h-30q5 80 56.5 124t117.5 44q71 0 122 -46t51 -126q0 -103 -104 -157q44 -16 76.5 -42.5t48 -57t22 -57t6.5 -50.5q0 -103 -63.5 -166.5t-164.5 -63.5q-50 0 -97 22t-79 62q-49 60 -49 144h30q3 -97 63 -149t135 -52q88 0 141.5 57t53.5 140q0 74 -54 136.5 t-157 62.5h-40v27h39q42 0 74 12.5t48.5 29.5t26 39.5t12 36.5t2.5 27q0 63 -39.5 103.5t-100.5 40.5q-64 0 -103.5 -40.5t-43.5 -100.5z" />
<glyph unicode="4" d="M391 0v144h-387v26l376 570h41v-569h75v-27h-75v-144h-30zM39 171h352v533z" />
<glyph unicode="5" d="M141 740h332v-27h-308l-54 -279q77 58 159 58q105 0 175 -75t70 -176q0 -107 -74 -180.5t-174 -73.5q-83 0 -158.5 60t-87.5 170h30q11 -94 75.5 -148.5t141.5 -54.5q88 0 152.5 66t64.5 158q0 95 -65 161t-152 66q-99 0 -169 -86l-26 7z" />
<glyph unicode="6" d="M320 740h32l-155 -231q-26 -38 -39 -58q57 38 122 38q99 0 170 -70.5t71 -178.5q0 -103 -70 -178t-174 -75q-116 0 -186 82q-58 70 -58 160q0 93 63 185zM63 231v-1q0 -89 58 -152.5t155 -63.5q93 0 154 65.5t61 157.5q0 106 -65 165.5t-145 59.5q-35 0 -71 -13 t-70 -38.5t-55.5 -72.5t-21.5 -107z" />
<glyph unicode="7" d="M87 740h393v-27l-330 -713h-31l329 713h-361v27z" />
<glyph unicode="8" d="M99 579v1q0 70 52.5 121.5t125.5 51.5q74 0 126 -50.5t52 -123.5q0 -51 -30 -95.5t-78 -64.5q68 -21 111 -78.5t44 -131.5q-2 -93 -67 -157.5t-158 -64.5t-158 64.5t-67 157.5q1 74 44 131t111 79q-48 20 -78 64.5t-30 95.5zM129 578v-1q0 -61 43 -103.5t105 -42.5 t105 42.5t43 104.5t-43 105t-105 43t-105 -43t-43 -105zM82 209v-1q0 -81 56.5 -137.5t138.5 -56.5t138.5 56.5t56.5 138.5t-56.5 138.5t-138.5 56.5t-138.5 -56.5t-56.5 -138.5z" />
<glyph unicode="9" d="M235 0h-32l155 231q13 20 39 58q-20 -14 -52 -26q-34 -12 -70 -12q-99 0 -170 70.5t-71 178.5q0 103 70 178t174 75q116 0 186 -82q58 -70 58 -160q0 -93 -63 -185zM492 509v1q0 89 -58 152.5t-155 63.5q-93 0 -154 -65.5t-61 -157.5q0 -106 65 -165.5t145 -59.5 q35 0 71 13t70 38.5t55.5 72.5t21.5 107z" />
<glyph unicode=":" horiz-adv-x="277" d="M154 530v-81h-30v81h30zM154 81v-81h-30v81h30z" />
<glyph unicode=";" horiz-adv-x="277" d="M153 530v-81h-30v81h30zM156 82l-63 -154h-32l63 154h32z" />
<glyph unicode="&#x3c;" horiz-adv-x="600" d="M50 267l500 235v-31l-467 -220l467 -220v-31l-500 235v32z" />
<glyph unicode="=" horiz-adv-x="600" d="M50 361h500v-28h-500v28zM50 167h500v-28h-500v28z" />
<glyph unicode="&#x3e;" horiz-adv-x="600" d="M50 31l467 220l-467 220v31l500 -235v-32l-500 -235v31z" />
<glyph unicode="?" horiz-adv-x="536" d="M273 166h-30q1 43 4.5 67.5t24.5 65t62 79.5l25 25t24.5 25.5t19.5 23.5t18 28t10 29t6 36q0 73 -51.5 125t-129.5 52q-62 0 -116.5 -37t-66.5 -111q-3 -15 -3 -30h-30q0 9 2 27q9 65 48 108t81 58.5t84 15.5q86 0 149 -59.5t63 -150.5q0 -38 -21 -76.5t-39.5 -58 t-58.5 -58.5q-35 -35 -53 -73t-20 -58t-2 -53zM272 81v-81h-29v81h29z" />
<glyph unicode="@" horiz-adv-x="796" d="M723 187h25q-29 -68 -88.5 -115.5t-120.5 -66t-121 -18.5q-159 0 -268 109.5t-109 268.5q0 161 111 274.5t273 113.5q62 0 122 -20.5t110 -58t80.5 -98.5t30.5 -135q0 -69 -26 -126t-65 -88.5t-76.5 -48.5t-67.5 -17q-15 0 -29.5 3t-32.5 21.5t-18 50.5q-51 -71 -128 -71 q-15 0 -31.5 5.5t-35 18.5t-30 40.5t-11.5 65.5q0 105 65 193t147 88q46 0 69.5 -20.5t38.5 -62.5l23 67h28l-96 -272q0 -1 -2.5 -7t-4.5 -12.5t-4 -15.5t-2 -16q-1 -21 10 -33.5t21.5 -14.5t23.5 -2q28 0 62.5 16.5t67 46.5t54.5 80.5t22 109.5q0 70 -28 126.5t-74 90.5 t-100.5 52t-110.5 18q-147 0 -252.5 -102t-105.5 -260q0 -104 50 -185.5t129 -124t169 -42.5q88 0 175 44.5t131 129.5zM245 295v-1q0 -56 25 -79.5t57 -23.5q106 0 148 133q1 2 10.5 26t15.5 40t12 37.5t6 34.5q-1 45 -29.5 66.5t-58.5 21.5q-65 0 -125.5 -77t-60.5 -178z " />
<glyph unicode="A" horiz-adv-x="687" d="M150 258l-111 -258h-32l317 740h39l317 -740h-32l-111 258h-387zM524 285l-181 427l-180 -427h361z" />
<glyph unicode="B" horiz-adv-x="540" d="M77 0v740h157q84 0 130 -27q87 -46 87 -159q0 -36 -9.5 -64.5t-27 -47t-32.5 -29.5t-36 -21q49 -14 82 -41.5t46.5 -59.5t18 -53.5t4.5 -40.5q-1 -130 -117 -180q-49 -17 -118 -17h-185zM107 713v-312h134q70 0 105 19q75 42 75 138q0 47 -22 83t-53 50q-36 21 -112 22 h-127zM107 374v-347h156q62 0 106 16q97 41 98 154q0 55 -27 96.5t-73 62.5q-42 18 -126 18h-134z" />
<glyph unicode="C" horiz-adv-x="786" d="M714 161h34q-42 -71 -128.5 -122.5t-194.5 -51.5q-161 0 -272.5 109t-111.5 274t111.5 274t272.5 109q109 -1 193 -53t131 -125h-35q-14 20 -35 41t-57 48t-88 44.5t-109 17.5q-148 0 -251 -102t-103 -254t103 -254t251 -102q60 0 113.5 18t89.5 46t54.5 46.5t31.5 36.5z " />
<glyph unicode="D" horiz-adv-x="701" d="M77 0v740h209q176 0 274 -98q99 -97 99 -272q0 -174 -99 -272t-274 -98h-209zM107 713v-686h179q161 0 252 90.5t91 250.5q0 162 -90 254q-91 91 -253 91h-179z" />
<glyph unicode="E" horiz-adv-x="547" d="M77 0v740h406v-27h-376v-327h376v-27h-376v-332h376v-27h-406z" />
<glyph unicode="F" horiz-adv-x="477" d="M77 0v740h363v-27h-333v-327h333v-27h-333v-359h-30z" />
<glyph unicode="G" horiz-adv-x="853" d="M761 576h-36q-45 59 -104 95q-87 55 -196 55q-148 0 -251 -102t-103 -254t103 -254t251 -102q135 0 239 84q99 80 119 188h-441v27h477q-6 -57 -32 -109q-47 -97 -144.5 -157t-217.5 -60q-161 0 -272.5 109t-111.5 274t111.5 274t272.5 109q103 0 194.5 -47.5 t141.5 -129.5z" />
<glyph unicode="H" horiz-adv-x="628" d="M107 0h-30v740h30v-354h414v354h30v-740h-30v359h-414v-359z" />
<glyph unicode="I" horiz-adv-x="185" d="M77 0v740h30v-740h-30z" />
<glyph unicode="J" horiz-adv-x="453" d="M377 740v-528q0 -78 -18 -122q-20 -41 -51 -65q-51 -38 -118 -38q-59 0 -109 34t-69 96q-1 3 -2 7t-2 9t-2 8h33q1 -2 2 -5.5t1 -5.5q10 -36 30.5 -61.5t44.5 -36t41.5 -14.5t33.5 -4q54 1 90 27t49 60q16 41 16 111v528h30z" />
<glyph unicode="K" horiz-adv-x="536" d="M91 0v740h30v-371l345 371h36l-342 -370l376 -370h-40l-375 367v-367h-30z" />
<glyph unicode="L" horiz-adv-x="423" d="M77 0v740h30v-713h313v-27h-343z" />
<glyph unicode="M" horiz-adv-x="933" d="M107 0h-30v740h48l342 -692l341 692h47v-740h-30v710l-350 -710h-17l-351 710v-710z" />
<glyph unicode="N" horiz-adv-x="738" d="M122 740l509 -700v700h30v-740h-38l-516 710v-710h-30v740h45z" />
<glyph unicode="O" horiz-adv-x="851" d="M41 370v1q0 164 111.5 273t272.5 109t272.5 -109t111.5 -274t-111.5 -274t-272.5 -109t-272.5 109t-111.5 274zM71 370v-1q0 -152 103 -253.5t251 -101.5t251 102t103 254t-103 254t-251 102t-251 -102t-103 -254z" />
<glyph unicode="P" horiz-adv-x="511" d="M67 740h172q69 0 109.5 -9t75.5 -35q33 -24 54 -70t21 -96t-21 -96t-54 -70q-35 -26 -76 -35t-109 -9h-142v-320h-30v740zM97 713v-366h143q63 0 100 9t68 32q27 19 44 59t17 82q0 44 -17 84t-44 59q-31 23 -68 32t-100 9h-143z" />
<glyph unicode="Q" horiz-adv-x="882" d="M885 18v-31q-33 4 -67 11q-32 7 -59 17.5t-42.5 19t-45.5 26.5q-102 -74 -228 -74q-114 0 -204 53.5t-136.5 140.5t-46.5 189q0 165 111.5 274t272.5 109t272.5 -109t111.5 -274t-128 -290q80 -47 189 -62zM440 726h-1q-148 0 -250.5 -102t-102.5 -254q0 -68 21 -124 q92 30 172 30q120 0 220 -54q24 -13 51 -32t122 -92q122 105 122 272q0 152 -103 254t-251 102zM444 14h1q61 0 115 20t88 46q-9 6 -39 28.5t-56 42.5t-27 21q-117 77 -251 77q-71 0 -156 -32q25 -52 61 -91t70.5 -59.5t74 -33t66.5 -16t53 -3.5z" />
<glyph unicode="R" horiz-adv-x="554" d="M67 0v740h169q144 0 197 -31q46 -23 76.5 -78t30.5 -119q4 -83 -47 -150q-37 -49 -82 -64.5t-118 -18.5l199 -279h-38l-217 306h21q142 0 189 47q63 66 63 158q0 50 -23.5 97.5t-64.5 74.5q-31 20 -70 25t-116 5h-139v-713h-30z" />
<glyph unicode="S" horiz-adv-x="518" d="M45 187h30q6 -50 27.5 -86.5t50 -54t54.5 -25t51 -7.5q73 0 129.5 50t56.5 126q0 33 -8 59t-26 45t-32.5 31t-43 22.5t-40 14.5t-39.5 11q-29 7 -46 12t-49 20t-50.5 33t-33.5 50t-15 72q-2 88 57 140.5t144 52.5q71 0 125.5 -43.5t65.5 -128.5h-30q-27 145 -163 145 q-72 0 -120.5 -45t-48.5 -116q0 -34 11.5 -61t28 -43.5t46 -30.5t52.5 -21t61 -17q66 -18 95 -36q89 -53 89 -162q0 -89 -65 -148t-150 -59q-35 0 -70 12t-66.5 35t-52.5 63t-25 90z" />
<glyph unicode="T" horiz-adv-x="443" d="M206 0v713h-201v27h432v-27h-201v-713h-30z" />
<glyph unicode="U" horiz-adv-x="605" d="M76 740h30v-480q0 -45 1.5 -67t12 -52t32.5 -59q24 -31 65.5 -49.5t86.5 -18.5q43 0 84 18.5t65 49.5q22 29 32.5 59t12 52t1.5 67v480h30v-480q1 -45 -2.5 -77.5t-25 -77.5t-61.5 -73q-61 -45 -138 -45q-76 0 -137 45q-40 28 -61.5 73t-25 77.5t-2.5 77.5v480z" />
<glyph unicode="V" horiz-adv-x="666" d="M322 0l-315 740h34l292 -690l293 690h33l-316 -740h-21z" />
<glyph unicode="W" horiz-adv-x="888" d="M223 0l-211 740h32l200 -699l189 699h21l193 -699l198 699h31l-212 -740h-39l-181 661l-181 -661h-40z" />
<glyph unicode="X" d="M8 0l252 376l-243 364h36l223 -336l225 336h35l-243 -364l254 -376h-35l-236 350l-235 -350h-33z" />
<glyph unicode="Y" horiz-adv-x="554" d="M262 0v255l-247 485h33l229 -451l228 451h34l-247 -485v-255h-30z" />
<glyph unicode="Z" horiz-adv-x="499" d="M472 722l-417 -695h438v-27h-473v18l417 695h-431v27h466v-18z" />
<glyph unicode="[" horiz-adv-x="425" d="M355 -154v-30h-216v924h216v-30h-186v-864h186z" />
<glyph unicode="\" horiz-adv-x="518" d="M418 -100l-351 840h33l351 -840h-33z" />
<glyph unicode="]" horiz-adv-x="425" d="M70 -184v30h186v864h-186v30h216v-924h-216z" />
<glyph unicode="^" horiz-adv-x="600" d="M112 375l172 365h32l172 -365h-32l-156 332l-156 -332h-32z" />
<glyph unicode="_" horiz-adv-x="500" d="M500 -125h-500v50h500v-50z" />
<glyph unicode="`" d="M158 751l237 -138l-13 -23l-238 138z" />
<glyph unicode="a" horiz-adv-x="674" d="M596 530v-530h-28v137q-36 -72 -100.5 -111t-147.5 -39q-125 0 -202 82.5t-77 195.5q0 114 77.5 196t201.5 82q90 0 157.5 -46t90.5 -107v140h28zM69 265v-1q1 -63 27.5 -118.5t86 -94t140.5 -38.5q83 0 145 45.5t88 119.5q17 44 15 93q0 50 -18 92q-27 70 -90 112 t-143 42q-105 0 -178 -71t-73 -181z" />
<glyph unicode="b" horiz-adv-x="674" d="M78 0v740h28v-210v-140q32 67 94.5 109.5t153.5 43.5q124 0 201.5 -82t77.5 -196q0 -113 -77 -195.5t-202 -82.5q-83 0 -147.5 39t-100.5 111v-137h-28zM605 265v1q0 109 -73 180t-178 71q-107 0 -179 -72t-72 -180q0 -105 70 -178.5t178 -73.5q62 0 111.5 22.5t79.5 59 t46.5 80.5t16.5 90z" />
<glyph unicode="c" horiz-adv-x="619" d="M552 167h31q-28 -81 -98.5 -130.5t-159.5 -49.5q-133 0 -208.5 83.5t-75.5 193.5q0 118 79.5 198.5t199.5 80.5q86 0 160 -48t104 -137h-31q-19 55 -60.5 92.5t-85 52.5t-86.5 14q-101 -1 -179 -71q-33 -30 -53 -79t-20 -102q0 -110 73.5 -181t177.5 -71q86 1 148.5 46 t83.5 108z" />
<glyph unicode="d" horiz-adv-x="677" d="M596 740v-740h-28v137q-36 -72 -100.5 -111t-147.5 -39q-125 0 -202 82.5t-77 195.5q0 114 77.5 196t201.5 82q90 0 157.5 -46t90.5 -107v140v210h28zM69 265v-1q1 -63 27.5 -118.5t86 -94t140.5 -38.5q106 0 178 74q73 75 70 180q0 106 -72 178t-179 72q-105 0 -178 -71 t-73 -181z" />
<glyph unicode="e" horiz-adv-x="619" d="M588 262h-528q1 -62 25.5 -111.5t62.5 -78.5t80 -44t83 -15q74 0 134.5 36.5t91.5 103.5h31q-35 -81 -107 -126q-67 -40 -151 -40q-71 0 -127 26.5t-88 68.5t-48 88.5t-16 93.5q0 119 80.5 199t199.5 80q111 0 190 -71q44 -39 67.5 -95.5t19.5 -114.5zM61 288h499 q-4 95 -79.5 164t-169.5 65q-100 0 -172 -65t-78 -164z" />
<glyph unicode="f" horiz-adv-x="263" d="M94 0v504h-87v26h87v53q0 40 9.5 71t28 48.5t34 28.5t39.5 15.5t32 5t23 1.5v-27q-61 -5 -88 -24q-50 -37 -50 -127v-45h138v-26h-138v-504h-28z" />
<glyph unicode="g" horiz-adv-x="675" d="M598 530v-471q0 -146 -104 -226q-78 -59 -165 -59q-82 0 -155 43.5t-106 119.5h32q34 -56 69 -82q69 -55 156 -55q97 0 171 71.5t74 182.5v86q-36 -74 -100 -113.5t-148 -39.5q-127 0 -204.5 82.5t-77.5 195.5q0 114 78 196t204 82q90 0 157.5 -46t90.5 -107v140h28z M68 265v-1q1 -99 68.5 -175t188.5 -76q107 0 178 74q70 73 70 180q0 87 -55 159q-70 91 -196 91q-107 0 -180.5 -71t-73.5 -181z" />
<glyph unicode="h" horiz-adv-x="640" d="M78 0v740h28v-212v-105q25 58 86.5 90t128.5 30q122 0 185 -72q58 -67 58 -191v-280h-28v280q0 112 -50 172q-55 65 -165 65q-100 -2 -157 -57q-58 -56 -58 -155v-305h-28z" />
<glyph unicode="i" horiz-adv-x="184" d="M78 649v91h28v-91h-28zM78 0v530h28v-530h-28z" />
<glyph unicode="j" horiz-adv-x="219" d="M95 648v92h28v-92h-28zM123 530v-524q0 -28 -0.5 -43t-4 -42.5t-11 -45t-20.5 -37t-35 -31.5t-52 -18q-2 -1 -7 -1.5t-7 -0.5v30q2 0 5.5 0.5t5.5 1.5q32 7 52.5 22.5t30 41.5t12.5 53.5t3 69.5v524h28z" />
<glyph unicode="k" horiz-adv-x="467" d="M78 0v740h28v-442l285 232h38l-283 -233l305 -297h-38l-307 296v-296h-28z" />
<glyph unicode="l" horiz-adv-x="183" d="M78 0v740h28v-740h-28z" />
<glyph unicode="m" horiz-adv-x="949" d="M78 0v530h28v-99q18 36 43.5 60.5t52.5 34.5t46 13.5t36 3.5q102 0 156 -65q7 -7 16 -22.5t14 -27.5l6 -12q15 36 38 62q59 65 154 65q92 0 145 -53q61 -60 61 -193v-297h-28v297q0 121 -54 175q-43 45 -124 45q-90 0 -137 -61q-25 -33 -33 -64.5t-8 -94.5v-297h-28v297 q1 60 -8 94t-30 63q-46 60 -140 63q-38 1 -73.5 -15.5t-55.5 -42.5q-49 -56 -49 -157v-302h-28z" />
<glyph unicode="n" horiz-adv-x="641" d="M78 0v530h28q0 -71 -1 -115q26 66 86.5 98t135.5 30q117 -3 177 -70t60 -188v-285h-28v285q0 110 -54.5 171.5t-160.5 60.5q-98 -2 -156.5 -56.5t-58.5 -155.5v-305h-28z" />
<glyph unicode="o" horiz-adv-x="641" d="M41 265v1q0 118 80 197.5t199 79.5t199 -79.5t80 -198.5t-80 -198.5t-199 -79.5t-199 79.5t-80 198.5zM69 265v-1q0 -107 72 -179t179 -72t179 72t72 180t-72 180t-179 72t-179 -72t-72 -180z" />
<glyph unicode="p" horiz-adv-x="677" d="M78 -213v743h28v-137q36 72 100.5 111t147.5 39q125 0 202 -82.5t77 -195.5q0 -114 -77.5 -196t-201.5 -82q-90 0 -157.5 46t-90.5 107v-140v-213h-28zM605 265v1q-1 63 -27.5 118.5t-86 94t-140.5 38.5q-105 0 -178 -73q-70 -73 -70 -180t72 -179t179 -72q105 0 178 71 t73 181z" />
<glyph unicode="q" horiz-adv-x="674" d="M596 530v-743h-28v213v135q-23 -58 -91 -103t-157 -45q-124 0 -201.5 82t-77.5 196q0 113 77 195.5t202 82.5q83 0 147 -38.5t101 -106.5v132h28zM69 265v-1q0 -109 73 -180t178 -71q107 0 179 72t72 179q3 104 -70 179q-72 74 -178 74q-62 0 -111.5 -22.5t-79.5 -59 t-46.5 -80.5t-16.5 -90z" />
<glyph unicode="r" horiz-adv-x="302" d="M78 0v530h28v-101q18 37 42.5 61t54 34.5t47 13.5t43.5 5v-27h-8q-85 0 -132 -59t-47 -167v-290h-28z" />
<glyph unicode="s" horiz-adv-x="426" d="M351 405h-28q0 56 -32.5 84.5t-79.5 27.5q-53 0 -85.5 -31.5t-30.5 -79.5q2 -46 29 -69t87 -40q30 -8 43.5 -12t38.5 -16.5t37 -26.5t23 -38.5t13 -57.5q4 -65 -41.5 -112t-113.5 -47q-69 0 -118 45t-45 115h28q0 -62 38 -98t97 -36q58 0 93.5 38t33.5 91q-1 54 -31.5 83 t-96.5 44q-72 21 -106.5 48t-36.5 89q0 64 41 100.5t103 36.5q61 -1 100.5 -37t39.5 -101z" />
<glyph unicode="t" horiz-adv-x="296" d="M124 0v504h-117v26h117v210h28v-210h136v-26h-136v-504h-28z" />
<glyph unicode="u" horiz-adv-x="641" d="M563 530v-530h-28q0 71 1 115q-26 -66 -86.5 -98t-135.5 -30q-117 3 -177 70t-60 188v285h28v-285q0 -110 54.5 -171.5t160.5 -60.5q98 2 156.5 56.5t58.5 155.5v305h28z" />
<glyph unicode="v" horiz-adv-x="481" d="M476 530l-218 -530h-36l-218 530h31l205 -498l205 498h31z" />
<glyph unicode="w" horiz-adv-x="758" d="M205 0l-195 530h31l180 -492l147 420h22l148 -420l179 492h31l-195 -530h-32l-143 408l-141 -408h-32z" />
<glyph unicode="x" horiz-adv-x="407" d="M10 0l177 266l-177 264h36l158 -237l159 237h34l-176 -264l176 -266h-34l-159 239l-158 -239h-36z" />
<glyph unicode="y" horiz-adv-x="481" d="M127 -213l94 214l-210 529h31l196 -491l209 491h33l-321 -743h-32z" />
<glyph unicode="z" horiz-adv-x="407" d="M12 0v24l329 480h-311v26h347v-27l-329 -477h346v-26h-382z" />
<glyph unicode="{" horiz-adv-x="425" d="M344 753v-26h-54q-39 0 -50.5 -22t-11.5 -93v-185q0 -57 -20.5 -112.5t-60.5 -77.5q37 -16 59 -67t22 -116v-183q0 -75 11.5 -96t50.5 -21h54v-26h-66q-46 0 -64 29.5t-18 96.5v183q0 75 -17 119t-64 67v28q36 9 58.5 61.5t22.5 130.5v187q0 66 18 94.5t64 28.5h66z" />
<glyph unicode="|" d="M263 750h30v-1000h-30v1000z" />
<glyph unicode="}" horiz-adv-x="425" d="M81 727v26h66q46 0 64 -28.5t18 -94.5v-187q0 -78 22.5 -130.5t58.5 -61.5v-28q-47 -23 -64 -67t-17 -119v-183q0 -67 -18 -96.5t-64 -29.5h-66v26h54q39 0 50.5 21t11.5 96v183q0 65 22 116t59 67q-40 22 -60.5 77.5t-20.5 112.5v185q0 71 -11.5 93t-50.5 22h-54z" />
<glyph unicode="~" horiz-adv-x="600" d="M504 290l19 -19q-18 -33 -44.5 -52t-54.5 -19q-36 0 -114 36q-80 37 -112 37q-64 4 -103 -62l-19 18q19 37 52 56t70 16q35 0 118 -37q78 -36 106 -36q26 0 44.5 16.5t37.5 45.5z" />
<glyph unicode="&#xa1;" horiz-adv-x="259" d="M115 450v81h30v-81h-30zM115 -209v574h30v-574h-30z" />
<glyph unicode="&#xa2;" d="M307 39h-30v108q-99 6 -154 74t-55 148q0 79 53 146.5t156 76.5v95h30v-96q35 -4 62.5 -13t61.5 -36.5t56 -72.5h-33q-51 94 -163 94q-87 0 -140 -56t-53 -135t51 -137.5t141 -58.5q64 0 105.5 28t58.5 61h34q-18 -35 -44.5 -60t-54 -36.5t-46.5 -16t-36 -5.5v-108z" />
<glyph unicode="&#xa3;" d="M404 393v-27h-244q104 -79 104 -194q0 -76 -45 -145h92q63 0 94 10.5t57 34.5q53 57 53 127q0 22 -7 50h31q6 -28 6 -49q0 -87 -60 -147q-37 -32 -71.5 -42.5t-107.5 -10.5h-270v27h148l8 12q9 12 14 22t12.5 27t11.5 38t4 45q0 58 -28.5 103t-87.5 92h-112v27h86 q-40 52 -41 123q0 101 67.5 169t170.5 68q80 0 145 -48.5t87 -134.5h-31q-20 69 -75 112.5t-126 43.5q-91 -2 -148 -59t-60 -151q2 -69 50 -123h273z" />
<glyph unicode="&#xa4;" d="M492 105l-76 76q-64 -51 -139 -51q-76 0 -139 51l-77 -76l-20 21l77 77q-56 62 -56 140q0 79 54 138l-77 77l21 21l77 -77q62 54 140 54q79 0 140 -53l76 76l22 -21l-76 -77q53 -59 53 -138t-56 -140l77 -77zM92 343v-1q0 -74 55.5 -128t129.5 -54q75 0 130 54t55 129 q0 76 -55 129.5t-130 53.5q-74 0 -129.5 -53t-55.5 -130z" />
<glyph unicode="&#xa5;" d="M509 409v-26h-205l-13 -26v-82h218v-26h-218v-249h-30v249h-214v26h214v82l-14 26h-200v26h185l-200 331h32l212 -350l216 350h32l-204 -331h189z" />
<glyph unicode="&#xa6;" d="M263 675h30v-350h-30v350zM263 175h30v-350h-30v350z" />
<glyph unicode="&#xa7;" horiz-adv-x="573" d="M476 586h-28q-7 78 -47.5 107.5t-106.5 29.5q-67 0 -108.5 -37.5t-42.5 -98.5q1 -28 10 -50t26.5 -37t30 -22.5t34.5 -17.5l150 -71q119 -55 119 -154q0 -47 -26 -88.5t-69 -66.5q70 -49 70 -127q0 -76 -56 -126t-143 -50q-109 0 -164.5 59t-47.5 165h28 q-11 -194 183 -194q77 0 123.5 39t48.5 107q-2 43 -24.5 72t-79.5 55l-195 90l-9 4q-8 5 -11 7t-12 7.5t-14 10t-13.5 12.5t-13 15.5t-11 18.5t-9.5 22.5t-5.5 26t-2.5 30.5q0 44 25.5 86t75.5 67q-46 43 -46 107q0 77 51 123t128 46q83 0 132.5 -44t49.5 -123zM485 233v1 q0 28 -9.5 50t-28.5 37.5t-31.5 23t-35.5 18.5l-198 95q-93 -45 -94 -137q2 -83 77 -120l225 -104q33 13 63.5 51.5t31.5 84.5z" />
<glyph unicode="&#xa8;" d="M209 724v-116h-29v116h29zM375 724v-116h-29v116h29z" />
<glyph unicode="&#xa9;" horiz-adv-x="800" d="M400 751h1q162 0 271 -111t109 -270q0 -162 -111 -271.5t-270 -109.5q-161 0 -271.5 109t-110.5 272q0 159 109 270t273 111zM400 725h-1q-152 0 -252.5 -104t-100.5 -251q0 -150 102 -252.5t252 -102.5q148 0 250.5 102.5t102.5 252.5q0 148 -100.5 251.5t-252.5 103.5z M600 451h-28q-12 63 -60 93.5t-106 30.5q-81 0 -134.5 -55t-53.5 -150q0 -103 56.5 -153.5t130.5 -50.5q14 0 29.5 2t41 11.5t46 26t37.5 48t22 74.5h28q-6 -87 -65.5 -137.5t-139.5 -50.5q-86 0 -150 59t-64 170q0 103 60 167.5t157 64.5q75 0 130 -42t63 -108z" />
<glyph unicode="&#xaa;" horiz-adv-x="439" d="M388 745v-333h-28v83q-46 -91 -153 -91q-79 0 -130 52t-51 123q0 72 52.5 123t128.5 51q104 0 153 -93v85h28zM54 575v-1q0 -53 42.5 -98.5t111.5 -45.5q46 0 81.5 22t54.5 58q16 34 16 68q0 30 -13 61q-19 40 -57 64t-83 24q-61 0 -107 -41.5t-46 -110.5z" />
<glyph unicode="&#xab;" horiz-adv-x="351" d="M46 276l114 194h35l-114 -194l114 -191h-35zM157 276l114 194h35l-114 -194l114 -191h-35z" />
<glyph unicode="&#xac;" horiz-adv-x="600" d="M50 361h500v-222h-28v194h-472v28z" />
<glyph unicode="&#xad;" horiz-adv-x="266" d="M0 291h266v-29h-266v29z" />
<glyph unicode="&#xae;" horiz-adv-x="800" d="M400 751h1q162 0 271 -111t109 -270q0 -162 -111 -271.5t-270 -109.5q-161 0 -271.5 109t-110.5 272q0 159 109 270t273 111zM400 725h-1q-152 0 -252.5 -104t-100.5 -251q0 -150 102 -252.5t252 -102.5q148 0 250.5 102.5t102.5 252.5q0 148 -100.5 251.5t-252.5 103.5z M235 589h185q14 0 26.5 -0.5t38 -7t43 -18t31.5 -35.5t14 -58q0 -78 -86 -109q43 -11 58.5 -35.5t18.5 -65.5q5 -72 7 -87.5t8 -26.5h-29q-7 10 -12 100q-2 28 -5.5 42.5t-16 30.5t-39.5 22t-72 6h-142v-201h-28v443zM415 563h-152v-190h140q2 0 17.5 1.5t25 3t26.5 5.5 t28 10.5t22 16.5t17 25t6 35q0 93 -130 93z" />
<glyph unicode="&#xaf;" d="M455 675v-30h-356v30h356z" />
<glyph unicode="&#xb0;" horiz-adv-x="400" d="M343 566v-1q0 -59 -41.5 -100.5t-101.5 -41.5t-101.5 41.5t-41.5 101.5t41.5 101.5t101.5 41.5t101.5 -41.5t41.5 -101.5zM85 566v-1q0 -47 33.5 -80.5t81.5 -33.5q49 0 82 33.5t33 81.5t-33 81.5t-82 33.5t-82 -33.5t-33 -81.5z" />
<glyph unicode="&#xb1;" horiz-adv-x="600" d="M286 309v197h28v-197h238v-28h-238v-197h-28v197h-238v28h238zM48 0v28h504v-28h-504z" />
<glyph unicode="&#xb2;" horiz-adv-x="351" d="M307 321v-25h-271v23q30 32 92 96t93 97q55 61 55 104q0 44 -24 75.5t-78 31.5q-47 0 -75 -33t-28 -90h-28q0 61 29 98q37 50 104 50q58 0 93 -35.5t35 -96.5q0 -53 -64 -122q-55 -57 -165 -173h232z" />
<glyph unicode="&#xb3;" horiz-adv-x="351" d="M33 430h28q1 -41 20 -69t42.5 -38t48.5 -10q51 0 81 31.5t30 80.5q0 41 -30 76.5t-89 35.5h-27v25h27q30 0 50 10t28 25.5t10.5 25.5t2.5 19q0 34 -21 57t-57 24t-58 -22t-24 -59h-28q3 53 36.5 79.5t73.5 26.5q42 0 74 -29.5t32 -75.5q0 -62 -57 -92q38 -15 61.5 -49 t23.5 -75q0 -61 -39 -100t-100 -39q-74 0 -114 57q-25 37 -25 85z" />
<glyph unicode="&#xb4;" d="M160 613l237 138l14 -23l-238 -138z" />
<glyph unicode="&#xb5;" horiz-adv-x="561" d="M78 -181v711h28v-300q0 -36 1.5 -58t10.5 -52.5t27 -50.5q47 -56 133 -56q85 0 132 65q51 66 51 200v252h28v-530h-28v119q-49 -132 -183 -132q-116 0 -172 90v-92v-166h-28z" />
<glyph unicode="&#xb6;" horiz-adv-x="561" d="M239 -126v469q-99 0 -163 49.5t-64 147.5q0 99 66 149.5t168 50.5h246v-28h-64v-838h-30v836h-129v-836h-30z" />
<glyph unicode="&#xb7;" horiz-adv-x="277" d="M154 296v-81h-30v81h30z" />
<glyph unicode="&#xb8;" d="M290 0l-24 -57q6 3 13 3q33 0 52.5 -21.5t19.5 -49.5q0 -30 -19.5 -53t-53.5 -23q-63 0 -74 62h27q9 -35 47 -35q18 0 31.5 13t14.5 36q-1 20 -14.5 32.5t-31.5 12.5q-26 0 -41 -25l-22 5l46 100h29z" />
<glyph unicode="&#xb9;" horiz-adv-x="351" d="M197 740v-444h-28v419h-95v25h123z" />
<glyph unicode="&#xba;" horiz-adv-x="439" d="M44 575v1q0 75 50 125.5t124 51.5q77 0 127 -51t50 -123q0 -76 -53.5 -125.5t-123.5 -49.5q-71 0 -122.5 50t-51.5 121zM72 576v-1q0 -58 43 -101.5t103 -43.5t104 42.5t45 106.5q-1 61 -42.5 104.5t-104.5 43.5q-61 0 -104.5 -42t-43.5 -109z" />
<glyph unicode="&#xbb;" horiz-adv-x="351" d="M191 469l114 -194l-114 -191h-35l114 191l-114 194h35zM80 469l114 -194l-114 -191h-35l114 191l-114 194h35z" />
<glyph unicode="&#xbc;" horiz-adv-x="700" d="M502 740l-330 -740h-29l329 740h30zM615 444v-334h42v-25h-42v-85h-28v85h-228v21l223 338h33zM167 740v-444h-28v419h-95v25h123zM587 407l-194 -297h194v297z" />
<glyph unicode="&#xbd;" horiz-adv-x="750" d="M167 740v-444h-28v419h-95v25h123zM502 740l-330 -740h-29l329 740h30zM707 25v-25h-271v23q30 32 92 96t93 97q55 61 55 104q0 44 -24 75.5t-78 31.5q-47 0 -75 -33t-28 -90h-28q0 54 23 90q37 58 110 58q58 0 93 -35.5t35 -96.5q0 -53 -64 -122q-55 -57 -165 -173h232z " />
<glyph unicode="&#xbe;" horiz-adv-x="807" d="M723 444v-334h42v-25h-42v-85h-28v85h-228v21l223 338h33zM610 740l-330 -740h-29l329 740h30zM695 407l-194 -297h194v297zM40 430h28q1 -41 20 -69t42.5 -38t48.5 -10q51 0 81 31.5t30 80.5q0 41 -30 76.5t-89 35.5h-27v25h27q30 0 50 10t28 25.5t10.5 25.5t2.5 19 q0 34 -21 57t-57 24t-58 -22t-24 -59h-28q3 53 36.5 79.5t73.5 26.5q42 0 74 -29.5t32 -75.5q0 -62 -57 -92q38 -15 61.5 -49t23.5 -75q0 -61 -39 -100t-100 -39q-77 0 -116 61q-23 34 -23 81z" />
<glyph unicode="&#xbf;" horiz-adv-x="536" d="M264 449v81h29v-81h-29zM263 364h30q-1 -43 -4.5 -67.5t-24.5 -65t-62 -79.5l-25 -25t-25 -25.5t-19.5 -23.5t-17.5 -27.5t-10 -29t-6 -35.5q0 -73 51.5 -125t129.5 -52q62 0 116.5 37t66.5 111q3 15 3 30h30q0 -9 -2 -27q-9 -65 -48 -108t-81 -58.5t-84 -15.5 q-86 0 -149 59.5t-63 150.5q0 28 9 54t31 53.5t35 41t44 43.5q35 35 53 73t20 58t2 53z" />
<glyph unicode="&#xc0;" horiz-adv-x="687" d="M150 258l-111 -258h-32l317 740h39l317 -740h-32l-111 258h-387zM524 285l-181 427l-180 -427h361zM219 941l237 -138l-13 -23l-238 138z" />
<glyph unicode="&#xc1;" horiz-adv-x="687" d="M150 258l-111 -258h-32l317 740h39l317 -740h-32l-111 258h-387zM524 285l-181 427l-180 -427h361zM231 803l237 138l14 -23l-238 -138z" />
<glyph unicode="&#xc2;" horiz-adv-x="687" d="M150 258l-111 -258h-32l317 740h39l317 -740h-32l-111 258h-387zM524 285l-181 427l-180 -427h361zM357 915l182 -117h-45l-151 95l-150 -95h-45l181 117h28z" />
<glyph unicode="&#xc3;" horiz-adv-x="687" d="M150 258l-111 -258h-32l317 740h39l317 -740h-32l-111 258h-387zM524 285l-181 427l-180 -427h361zM506 880l20 -20q-34 -40 -95 -40q-44 0 -96 20q-44 17 -79 17q-48 0 -75 -32l-20 20q34 40 95 40q44 0 96 -20q44 -17 79 -17q48 0 75 32z" />
<glyph unicode="&#xc4;" horiz-adv-x="687" d="M150 258l-111 -258h-32l317 740h39l317 -740h-32l-111 258h-387zM524 285l-181 427l-180 -427h361zM275 914v-116h-29v116h29zM441 914v-116h-29v116h29z" />
<glyph unicode="&#xc5;" horiz-adv-x="687" d="M150 258l-111 -258h-32l317 740h39l317 -740h-32l-111 258h-387zM524 285l-181 427l-180 -427h361zM343 942h1q38 0 64.5 -27t26.5 -64q0 -38 -27 -64.5t-65 -26.5q-37 0 -64 27t-27 64q0 38 27 64.5t64 26.5zM343 916h-1q-25 0 -43.5 -19t-18.5 -45t18.5 -44.5 t44.5 -18.5q27 0 45.5 18.5t18.5 44.5t-18.5 45t-45.5 19z" />
<glyph unicode="&#xc6;" horiz-adv-x="944" d="M-8 0l512 740h366v-27h-316v-327h316v-27h-316v-332h316v-27h-346v264h-315l-183 -264h-34zM231 291h293v431z" />
<glyph unicode="&#xc7;" horiz-adv-x="786" d="M420 -13l-20 -44q12 3 15 3q33 0 52.5 -21.5t19.5 -49.5q0 -30 -19.5 -53t-53.5 -23q-63 0 -74 62h27q9 -35 47 -35q18 0 31.5 13t14.5 36q-1 20 -14.5 32.5t-31.5 12.5q-26 0 -41 -25l-22 5l41 89q-149 11 -250 118t-101 263q0 165 111.5 274t272.5 109q109 -1 193 -53 t131 -125h-35q-14 20 -35 41t-57 48t-88 44.5t-109 17.5q-148 0 -251 -102t-103 -254t103 -254t251 -102q60 0 113.5 18t89.5 46t54.5 46.5t31.5 36.5h34q-42 -71 -129 -122.5t-199 -51.5z" />
<glyph unicode="&#xc8;" horiz-adv-x="547" d="M77 0v740h406v-27h-376v-327h376v-27h-376v-332h376v-27h-406zM154 946l237 -138l-13 -23l-238 138z" />
<glyph unicode="&#xc9;" horiz-adv-x="547" d="M77 0v740h406v-27h-376v-327h376v-27h-376v-332h376v-27h-406zM156 808l237 138l14 -23l-238 -138z" />
<glyph unicode="&#xca;" horiz-adv-x="547" d="M77 0v740h406v-27h-376v-327h376v-27h-376v-332h376v-27h-406zM287 920l182 -117h-45l-151 95l-150 -95h-45l181 117h28z" />
<glyph unicode="&#xcb;" horiz-adv-x="547" d="M77 0v740h406v-27h-376v-327h376v-27h-376v-332h376v-27h-406zM205 919v-116h-29v116h29zM371 919v-116h-29v116h29z" />
<glyph unicode="&#xcc;" horiz-adv-x="185" d="M77 0v740h30v-740h-30zM-47 941l237 -138l-13 -23l-238 138z" />
<glyph unicode="&#xcd;" horiz-adv-x="185" d="M77 0v740h30v-740h-30zM-5 803l237 138l14 -23l-238 -138z" />
<glyph unicode="&#xce;" horiz-adv-x="185" d="M77 0v740h30v-740h-30zM106 910l182 -117h-45l-151 95l-150 -95h-45l181 117h28z" />
<glyph unicode="&#xcf;" horiz-adv-x="185" d="M77 0v740h30v-740h-30zM24 914v-116h-29v116h29zM190 914v-116h-29v116h29z" />
<glyph unicode="&#xd0;" horiz-adv-x="701" d="M77 386v354h209q176 0 274 -98q99 -97 99 -272q0 -174 -99 -272t-274 -98h-209v359h-77v27h77zM107 713v-327h251v-27h-251v-332h179q161 0 252 90.5t91 250.5q0 162 -90 254q-91 91 -253 91h-179z" />
<glyph unicode="&#xd1;" horiz-adv-x="738" d="M122 740l509 -700v700h30v-740h-38l-516 710v-710h-30v740h45zM532 875l20 -20q-34 -40 -95 -40q-44 0 -96 20q-44 17 -79 17q-48 0 -75 -32l-20 20q34 40 95 40q44 0 96 -20q44 -17 79 -17q48 0 75 32z" />
<glyph unicode="&#xd2;" horiz-adv-x="851" d="M41 370v1q0 164 111.5 273t272.5 109t272.5 -109t111.5 -274t-111.5 -274t-272.5 -109t-272.5 109t-111.5 274zM71 370v-1q0 -152 103 -253.5t251 -101.5t251 102t103 254t-103 254t-251 102t-251 -102t-103 -254zM306 946l237 -138l-13 -23l-238 138z" />
<glyph unicode="&#xd3;" horiz-adv-x="851" d="M41 370v1q0 164 111.5 273t272.5 109t272.5 -109t111.5 -274t-111.5 -274t-272.5 -109t-272.5 109t-111.5 274zM71 370v-1q0 -152 103 -253.5t251 -101.5t251 102t103 254t-103 254t-251 102t-251 -102t-103 -254zM308 808l237 138l14 -23l-238 -138z" />
<glyph unicode="&#xd4;" horiz-adv-x="851" d="M41 370v1q0 164 111.5 273t272.5 109t272.5 -109t111.5 -274t-111.5 -274t-272.5 -109t-272.5 109t-111.5 274zM71 370v-1q0 -152 103 -253.5t251 -101.5t251 102t103 254t-103 254t-251 102t-251 -102t-103 -254zM439 915l182 -117h-45l-151 95l-150 -95h-45l181 117h28 z" />
<glyph unicode="&#xd5;" horiz-adv-x="851" d="M41 370v1q0 164 111.5 273t272.5 109t272.5 -109t111.5 -274t-111.5 -274t-272.5 -109t-272.5 109t-111.5 274zM71 370v-1q0 -152 103 -253.5t251 -101.5t251 102t103 254t-103 254t-251 102t-251 -102t-103 -254zM588 875l20 -20q-34 -40 -95 -40q-44 0 -96 20 q-44 17 -79 17q-48 0 -75 -32l-20 20q34 40 95 40q44 0 96 -20q44 -17 79 -17q48 0 75 32z" />
<glyph unicode="&#xd6;" horiz-adv-x="851" d="M41 370v1q0 164 111.5 273t272.5 109t272.5 -109t111.5 -274t-111.5 -274t-272.5 -109t-272.5 109t-111.5 274zM71 370v-1q0 -152 103 -253.5t251 -101.5t251 102t103 254t-103 254t-251 102t-251 -102t-103 -254zM357 919v-116h-29v116h29zM523 919v-116h-29v116h29z " />
<glyph unicode="&#xd7;" horiz-adv-x="600" d="M70 0l-20 21l229 230l-229 226l20 22l230 -228l230 228l20 -22l-229 -226l229 -230l-20 -21l-230 231z" />
<glyph unicode="&#xd8;" horiz-adv-x="851" d="M644 688l74 102h37l-87 -120q67 -54 104 -131t37 -169q0 -165 -111.5 -274t-272.5 -109q-118 0 -210 61l-72 -98h-37l84 114q-69 52 -109 131.5t-40 174.5q0 165 111.5 274t272.5 109q122 0 219 -65zM207 87l419 577q-88 62 -201 62q-148 0 -251 -102t-103 -254 q0 -88 36 -161.5t100 -121.5zM652 648l-420 -577q86 -57 193 -57q148 0 251 102t103 254q0 84 -34 156.5t-93 121.5z" />
<glyph unicode="&#xd9;" horiz-adv-x="605" d="M76 740h30v-480q0 -45 1.5 -67t12 -52t32.5 -59q24 -31 65.5 -49.5t86.5 -18.5q43 0 84 18.5t65 49.5q22 29 32.5 59t12 52t1.5 67v480h30v-480q1 -45 -2.5 -77.5t-25 -77.5t-61.5 -73q-61 -45 -138 -45q-76 0 -137 45q-40 28 -61.5 73t-25 77.5t-2.5 77.5v480zM153 931 l237 -138l-13 -23l-238 138z" />
<glyph unicode="&#xda;" horiz-adv-x="605" d="M76 740h30v-480q0 -45 1.5 -67t12 -52t32.5 -59q24 -31 65.5 -49.5t86.5 -18.5q43 0 84 18.5t65 49.5q22 29 32.5 59t12 52t1.5 67v480h30v-480q1 -45 -2.5 -77.5t-25 -77.5t-61.5 -73q-61 -45 -138 -45q-76 0 -137 45q-40 28 -61.5 73t-25 77.5t-2.5 77.5v480zM185 793 l237 138l14 -23l-238 -138z" />
<glyph unicode="&#xdb;" horiz-adv-x="605" d="M76 740h30v-480q0 -45 1.5 -67t12 -52t32.5 -59q24 -31 65.5 -49.5t86.5 -18.5q43 0 84 18.5t65 49.5q22 29 32.5 59t12 52t1.5 67v480h30v-480q1 -45 -2.5 -77.5t-25 -77.5t-61.5 -73q-61 -45 -138 -45q-76 0 -137 45q-40 28 -61.5 73t-25 77.5t-2.5 77.5v480zM316 905 l182 -117h-45l-151 95l-150 -95h-45l181 117h28z" />
<glyph unicode="&#xdc;" horiz-adv-x="605" d="M76 740h30v-480q0 -45 1.5 -67t12 -52t32.5 -59q24 -31 65.5 -49.5t86.5 -18.5q43 0 84 18.5t65 49.5q22 29 32.5 59t12 52t1.5 67v480h30v-480q1 -45 -2.5 -77.5t-25 -77.5t-61.5 -73q-61 -45 -138 -45q-76 0 -137 45q-40 28 -61.5 73t-25 77.5t-2.5 77.5v480zM234 904 v-116h-29v116h29zM400 904v-116h-29v116h29z" />
<glyph unicode="&#xdd;" horiz-adv-x="554" d="M262 0v255l-247 485h33l229 -451l228 451h34l-247 -485v-255h-30zM190 793l237 138l14 -23l-238 -138z" />
<glyph unicode="&#xde;" horiz-adv-x="511" d="M67 0v740h30v-156h142q73 0 111 -8.5t74 -35.5q33 -24 54 -70t21 -96t-21 -96t-54 -70q-36 -27 -74 -35.5t-111 -8.5h-142v-164h-30zM97 557v-366h143q65 0 100.5 9t67.5 32q26 20 43.5 59.5t17.5 81.5q0 43 -17 82.5t-44 60.5q-32 23 -67.5 32t-100.5 9h-143z" />
<glyph unicode="&#xdf;" horiz-adv-x="559" d="M76 0v473q0 85 8 127.5t31 73.5q24 37 65.5 58t86.5 21q90 0 143 -54.5t53 -142.5q0 -124 -111 -180q80 -11 122.5 -66.5t42.5 -124.5q0 -88 -62 -143t-154 -55q-74 1 -130.5 45.5t-66.5 143.5v-176h-28zM104 473v-282h26q2 -51 20 -87.5t45.5 -55t54 -27t54.5 -8.5 q80 0 132.5 47t52.5 120q0 86 -63 138q-28 20 -58.5 29t-92.5 10h-28v26h27q64 0 112.5 49.5t48.5 123.5q0 81 -46 126t-121 45q-38 0 -73 -17.5t-54 -45.5q-24 -35 -30.5 -74t-6.5 -117z" />
<glyph unicode="&#xe0;" horiz-adv-x="674" d="M596 530v-530h-28v137q-36 -72 -100.5 -111t-147.5 -39q-125 0 -202 82.5t-77 195.5q0 114 77.5 196t201.5 82q90 0 157.5 -46t90.5 -107v140h28zM69 265v-1q1 -63 27.5 -118.5t86 -94t140.5 -38.5q83 0 145 45.5t88 119.5q17 44 15 93q0 50 -18 92q-27 70 -90 112 t-143 42q-105 0 -178 -71t-73 -181zM218 751l237 -138l-13 -23l-238 138z" />
<glyph unicode="&#xe1;" horiz-adv-x="674" d="M596 530v-530h-28v137q-36 -72 -100.5 -111t-147.5 -39q-125 0 -202 82.5t-77 195.5q0 114 77.5 196t201.5 82q90 0 157.5 -46t90.5 -107v140h28zM69 265v-1q1 -63 27.5 -118.5t86 -94t140.5 -38.5q83 0 145 45.5t88 119.5q17 44 15 93q0 50 -18 92q-27 70 -90 112 t-143 42q-105 0 -178 -71t-73 -181zM215 613l237 138l14 -23l-238 -138z" />
<glyph unicode="&#xe2;" horiz-adv-x="674" d="M596 530v-530h-28v137q-36 -72 -100.5 -111t-147.5 -39q-125 0 -202 82.5t-77 195.5q0 114 77.5 196t201.5 82q90 0 157.5 -46t90.5 -107v140h28zM69 265v-1q1 -63 27.5 -118.5t86 -94t140.5 -38.5q83 0 145 45.5t88 119.5q17 44 15 93q0 50 -18 92q-27 70 -90 112 t-143 42q-105 0 -178 -71t-73 -181zM351 725l182 -117h-45l-151 95l-150 -95h-45l181 117h28z" />
<glyph unicode="&#xe3;" horiz-adv-x="674" d="M596 530v-530h-28v137q-36 -72 -100.5 -111t-147.5 -39q-125 0 -202 82.5t-77 195.5q0 114 77.5 196t201.5 82q90 0 157.5 -46t90.5 -107v140h28zM69 265v-1q1 -63 27.5 -118.5t86 -94t140.5 -38.5q83 0 145 45.5t88 119.5q17 44 15 93q0 50 -18 92q-27 70 -90 112 t-143 42q-105 0 -178 -71t-73 -181zM500 685l20 -20q-34 -40 -95 -40q-44 0 -96 20q-44 17 -79 17q-48 0 -75 -32l-20 20q34 40 95 40q44 0 96 -20q44 -17 79 -17q48 0 75 32z" />
<glyph unicode="&#xe4;" horiz-adv-x="674" d="M596 530v-530h-28v137q-36 -72 -100.5 -111t-147.5 -39q-125 0 -202 82.5t-77 195.5q0 114 77.5 196t201.5 82q90 0 157.5 -46t90.5 -107v140h28zM69 265v-1q1 -63 27.5 -118.5t86 -94t140.5 -38.5q83 0 145 45.5t88 119.5q17 44 15 93q0 50 -18 92q-27 70 -90 112 t-143 42q-105 0 -178 -71t-73 -181zM259 724v-116h-29v116h29zM425 724v-116h-29v116h29z" />
<glyph unicode="&#xe5;" horiz-adv-x="674" d="M596 530v-530h-28v137q-36 -72 -100.5 -111t-147.5 -39q-125 0 -202 82.5t-77 195.5q0 114 77.5 196t201.5 82q90 0 157.5 -46t90.5 -107v140h28zM69 265v-1q1 -63 27.5 -118.5t86 -94t140.5 -38.5q83 0 145 45.5t88 119.5q17 44 15 93q0 50 -18 92q-27 70 -90 112 t-143 42q-105 0 -178 -71t-73 -181zM327 762h1q38 0 64.5 -27t26.5 -64q0 -38 -27 -64.5t-65 -26.5q-37 0 -64 27t-27 64q0 38 27 64.5t64 26.5zM327 736h-1q-25 0 -43.5 -19t-18.5 -45t18.5 -44.5t44.5 -18.5q27 0 45.5 18.5t18.5 44.5t-18.5 45t-45.5 19z" />
<glyph unicode="&#xe6;" horiz-adv-x="1154" d="M1113 262h-518q6 -72 35 -124.5t69 -77.5t75.5 -36t68.5 -11q75 0 131 41t90 99h33q-32 -71 -100 -118.5t-151 -47.5q-89 0 -154 45.5t-97 129.5v-162h-28v162q-19 -73 -90 -124t-157 -51q-71 0 -127 26.5t-88 69t-48 89t-16 92.5q0 119 79.5 199t197.5 80 q174 0 249 -168v155h28v-154q70 167 240 167q125 0 203 -86q73 -80 75 -195zM69 265v-1q0 -107 72 -179t180 -72q101 0 174 75.5t73 176.5q0 102 -72 176q-74 76 -175 76q-108 0 -180 -72t-72 -180zM596 288h486q-18 111 -83.5 170t-161.5 59q-107 0 -178 -82 q-22 -25 -35.5 -53t-18 -45.5t-9.5 -48.5z" />
<glyph unicode="&#xe7;" horiz-adv-x="619" d="M318 -13l-20 -44q12 3 15 3q33 0 52.5 -21.5t19.5 -49.5q0 -30 -19.5 -53t-53.5 -23q-63 0 -74 62h27q9 -35 47 -35q18 0 31.5 13t14.5 36q-1 20 -14.5 32.5t-31.5 12.5q-26 0 -41 -25l-22 5l41 90q-107 9 -178 85t-71 190q1 118 80.5 198t198.5 80q86 0 160 -48 t104 -137h-31q-19 55 -60.5 92.5t-85 52.5t-86.5 14q-101 -1 -179 -71q-33 -30 -53 -79t-20 -102q0 -110 73.5 -181t177.5 -71q86 1 148.5 46t83.5 108h31q-28 -81 -99 -130t-166 -50z" />
<glyph unicode="&#xe8;" horiz-adv-x="619" d="M588 262h-528q1 -62 25.5 -111.5t62.5 -78.5t80 -44t83 -15q74 0 134.5 36.5t91.5 103.5h31q-35 -81 -107 -126q-67 -40 -151 -40q-71 0 -127 26.5t-88 68.5t-48 88.5t-16 93.5q0 119 80.5 199t199.5 80q111 0 190 -71q44 -39 67.5 -95.5t19.5 -114.5zM61 288h499 q-4 95 -79.5 164t-169.5 65q-100 0 -172 -65t-78 -164zM190 751l237 -138l-13 -23l-238 138z" />
<glyph unicode="&#xe9;" horiz-adv-x="619" d="M588 262h-528q1 -62 25.5 -111.5t62.5 -78.5t80 -44t83 -15q74 0 134.5 36.5t91.5 103.5h31q-35 -81 -107 -126q-67 -40 -151 -40q-71 0 -127 26.5t-88 68.5t-48 88.5t-16 93.5q0 119 80.5 199t199.5 80q111 0 190 -71q44 -39 67.5 -95.5t19.5 -114.5zM61 288h499 q-4 95 -79.5 164t-169.5 65q-100 0 -172 -65t-78 -164zM187 613l237 138l14 -23l-238 -138z" />
<glyph unicode="&#xea;" horiz-adv-x="619" d="M588 262h-528q1 -62 25.5 -111.5t62.5 -78.5t80 -44t83 -15q74 0 134.5 36.5t91.5 103.5h31q-35 -81 -107 -126q-67 -40 -151 -40q-71 0 -127 26.5t-88 68.5t-48 88.5t-16 93.5q0 119 80.5 199t199.5 80q111 0 190 -71q44 -39 67.5 -95.5t19.5 -114.5zM61 288h499 q-4 95 -79.5 164t-169.5 65q-100 0 -172 -65t-78 -164zM323 725l182 -117h-45l-151 95l-150 -95h-45l181 117h28z" />
<glyph unicode="&#xeb;" horiz-adv-x="619" d="M588 262h-528q1 -62 25.5 -111.5t62.5 -78.5t80 -44t83 -15q74 0 134.5 36.5t91.5 103.5h31q-35 -81 -107 -126q-67 -40 -151 -40q-71 0 -127 26.5t-88 68.5t-48 88.5t-16 93.5q0 119 80.5 199t199.5 80q111 0 190 -71q44 -39 67.5 -95.5t19.5 -114.5zM61 288h499 q-4 95 -79.5 164t-169.5 65q-100 0 -172 -65t-78 -164zM236 724v-116h-29v116h29zM402 724v-116h-29v116h29z" />
<glyph unicode="&#xec;" horiz-adv-x="184" d="M78 0v530h28v-530h-28zM-48 751l237 -138l-13 -23l-238 138z" />
<glyph unicode="&#xed;" horiz-adv-x="184" d="M78 0v530h28v-530h-28zM-6 613l237 138l14 -23l-238 -138z" />
<glyph unicode="&#xee;" horiz-adv-x="184" d="M78 0v530h28v-530h-28zM106 725l182 -117h-45l-151 95l-150 -95h-45l181 117h28z" />
<glyph unicode="&#xef;" horiz-adv-x="184" d="M78 0v530h28v-530h-28zM24 724v-116h-29v116h29zM190 724v-116h-29v116h29z" />
<glyph unicode="&#xf0;" horiz-adv-x="641" d="M314 637l-224 -82v30l191 70q-79 39 -170 70l34 15q93 -32 170 -73l200 73v-30l-166 -61q144 -83 205 -193q46 -84 46 -190q0 -127 -84.5 -202t-195.5 -77q-73 0 -134.5 30.5t-102.5 95t-42 151.5q2 124 80.5 200.5t199.5 78.5q57 0 110.5 -23.5t87.5 -64.5 q-18 35 -53 70q-65 67 -152 112zM69 265v-1q-1 -107 71 -179t180 -72q109 0 180.5 72.5t71.5 180.5q0 104 -74.5 177.5t-175.5 73.5q-109 -1 -181.5 -73t-71.5 -179z" />
<glyph unicode="&#xf1;" horiz-adv-x="641" d="M78 0v530h28q0 -71 -1 -115q26 66 86.5 98t135.5 30q117 -3 177 -70t60 -188v-285h-28v285q0 110 -54.5 171.5t-160.5 60.5q-98 -2 -156.5 -56.5t-58.5 -155.5v-305h-28zM483 685l20 -20q-34 -40 -95 -40q-44 0 -96 20q-44 17 -79 17q-48 0 -75 -32l-20 20q34 40 95 40 q44 0 96 -20q44 -17 79 -17q48 0 75 32z" />
<glyph unicode="&#xf2;" horiz-adv-x="641" d="M41 265v1q0 118 80 197.5t199 79.5t199 -79.5t80 -198.5t-80 -198.5t-199 -79.5t-199 79.5t-80 198.5zM69 265v-1q0 -107 72 -179t179 -72t179 72t72 180t-72 180t-179 72t-179 -72t-72 -180zM201 751l237 -138l-13 -23l-238 138z" />
<glyph unicode="&#xf3;" horiz-adv-x="641" d="M41 265v1q0 118 80 197.5t199 79.5t199 -79.5t80 -198.5t-80 -198.5t-199 -79.5t-199 79.5t-80 198.5zM69 265v-1q0 -107 72 -179t179 -72t179 72t72 180t-72 180t-179 72t-179 -72t-72 -180zM198 613l237 138l14 -23l-238 -138z" />
<glyph unicode="&#xf4;" horiz-adv-x="641" d="M41 265v1q0 118 80 197.5t199 79.5t199 -79.5t80 -198.5t-80 -198.5t-199 -79.5t-199 79.5t-80 198.5zM69 265v-1q0 -107 72 -179t179 -72t179 72t72 180t-72 180t-179 72t-179 -72t-72 -180zM334 725l182 -117h-45l-151 95l-150 -95h-45l181 117h28z" />
<glyph unicode="&#xf5;" horiz-adv-x="641" d="M41 265v1q0 118 80 197.5t199 79.5t199 -79.5t80 -198.5t-80 -198.5t-199 -79.5t-199 79.5t-80 198.5zM69 265v-1q0 -107 72 -179t179 -72t179 72t72 180t-72 180t-179 72t-179 -72t-72 -180zM483 685l20 -20q-34 -40 -95 -40q-44 0 -96 20q-44 17 -79 17q-48 0 -75 -32 l-20 20q34 40 95 40q44 0 96 -20q44 -17 79 -17q48 0 75 32z" />
<glyph unicode="&#xf6;" horiz-adv-x="641" d="M41 265v1q0 118 80 197.5t199 79.5t199 -79.5t80 -198.5t-80 -198.5t-199 -79.5t-199 79.5t-80 198.5zM69 265v-1q0 -107 72 -179t179 -72t179 72t72 180t-72 180t-179 72t-179 -72t-72 -180zM252 724v-116h-29v116h29zM418 724v-116h-29v116h29z" />
<glyph unicode="&#xf7;" horiz-adv-x="600" d="M315 500v-81h-30v81h30zM50 236v28h500v-28h-500zM315 81v-81h-30v81h30z" />
<glyph unicode="&#xf8;" horiz-adv-x="641" d="M520 565h34l-58 -81q103 -84 103 -219q0 -119 -80 -198.5t-199 -79.5q-85 0 -153 44l-48 -66h-34l60 82q-104 80 -104 218q0 119 80 198.5t199 79.5q87 0 153 -44zM160 68l297 409q-60 40 -137 40q-107 0 -179 -72t-72 -180q0 -124 91 -197zM480 462l-298 -410 q62 -39 138 -39q107 0 179 72t72 180q0 124 -91 197z" />
<glyph unicode="&#xf9;" horiz-adv-x="641" d="M563 530v-530h-28q0 71 1 115q-26 -66 -86.5 -98t-135.5 -30q-117 3 -177 70t-60 188v285h28v-285q0 -110 54.5 -171.5t160.5 -60.5q98 2 156.5 56.5t58.5 155.5v305h28zM171 751l237 -138l-13 -23l-238 138z" />
<glyph unicode="&#xfa;" horiz-adv-x="641" d="M563 530v-530h-28q0 71 1 115q-26 -66 -86.5 -98t-135.5 -30q-117 3 -177 70t-60 188v285h28v-285q0 -110 54.5 -171.5t160.5 -60.5q98 2 156.5 56.5t58.5 155.5v305h28zM203 613l237 138l14 -23l-238 -138z" />
<glyph unicode="&#xfb;" horiz-adv-x="641" d="M563 530v-530h-28q0 71 1 115q-26 -66 -86.5 -98t-135.5 -30q-117 3 -177 70t-60 188v285h28v-285q0 -110 54.5 -171.5t160.5 -60.5q98 2 156.5 56.5t58.5 155.5v305h28zM334 725l182 -117h-45l-151 95l-150 -95h-45l181 117h28z" />
<glyph unicode="&#xfc;" horiz-adv-x="641" d="M563 530v-530h-28q0 71 1 115q-26 -66 -86.5 -98t-135.5 -30q-117 3 -177 70t-60 188v285h28v-285q0 -110 54.5 -171.5t160.5 -60.5q98 2 156.5 56.5t58.5 155.5v305h28zM252 724v-116h-29v116h29zM418 724v-116h-29v116h29z" />
<glyph unicode="&#xfd;" horiz-adv-x="481" d="M127 -213l94 214l-210 529h31l196 -491l209 491h33l-321 -743h-32zM153 613l237 138l14 -23l-238 -138z" />
<glyph unicode="&#xfe;" horiz-adv-x="681" d="M78 -213v953h28v-271v-82q22 47 57 80t72.5 48.5t67.5 21.5t56 6q119 0 199.5 -80t80.5 -198q0 -119 -80.5 -198.5t-199.5 -79.5q-83 0 -150.5 42.5t-102.5 110.5v-68v-285h-28zM611 265v1q0 107 -71.5 179t-179.5 72q-103 0 -176 -70q-78 -73 -78 -185q0 -97 72 -171 q75 -78 182 -78q108 0 179.5 72t71.5 180z" />
<glyph unicode="&#xff;" horiz-adv-x="481" d="M127 -213l94 214l-210 529h31l196 -491l209 491h33l-321 -743h-32zM172 724v-116h-29v116h29zM338 724v-116h-29v116h29z" />
<glyph unicode="&#x131;" horiz-adv-x="184" d="M78 0v530h28v-530h-28z" />
<glyph unicode="&#x141;" horiz-adv-x="423" d="M0 280v35l81 60v365h30v-343l157 115v-35l-157 -118v-332h313v-27h-343v340z" />
<glyph unicode="&#x142;" horiz-adv-x="219" d="M95 382l-79 -58v30l79 58v328h28v-312l97 71v-29l-97 -72v-398h-28v382z" />
<glyph unicode="&#x152;" horiz-adv-x="1178" d="M802 713v-327h315v-27h-315v-332h315v-27h-345v115v114q-32 -107 -129 -174.5t-221 -67.5q-162 0 -271.5 108t-109.5 275t109 275t268 108q126 0 223.5 -67.5t130.5 -174.5v115v114h345v-27h-315zM71 370v-1q0 -154 100.5 -254.5t248.5 -100.5q149 0 250.5 104t101.5 253 q-4 151 -102.5 253t-249.5 102q-148 0 -248.5 -100.5t-100.5 -255.5z" />
<glyph unicode="&#x153;" horiz-adv-x="1156" d="M1116 263h-518q6 -119 79 -184.5t168 -65.5q71 0 133 37t86 105h31q-11 -25 -19 -40.5t-29.5 -41t-50.5 -44.5q-71 -42 -151 -42q-96 0 -164.5 52.5t-97.5 138.5q-40 -101 -112 -146t-151 -45q-64 0 -115.5 21t-81 52.5t-49 71t-26.5 72t-7 60.5q0 119 80 199t199 80 q92 0 161.5 -53t99.5 -141q8 27 24.5 56t46 61t79 52.5t110.5 20.5q117 0 197 -83q78 -81 78 -193zM69 265v-1q0 -107 72 -179t179 -72q105 0 176.5 76t71.5 174q0 97 -70 175.5t-178 78.5q-107 0 -179 -72t-72 -180zM599 289h484q-2 33 -17.5 70t-44 72.5t-76 58.5 t-105.5 23q-94 0 -162 -63t-79 -161z" />
<glyph unicode="&#x160;" horiz-adv-x="518" d="M45 187h30q6 -50 27.5 -86.5t50 -54t54.5 -25t51 -7.5q73 0 129.5 50t56.5 126q0 33 -8 59t-26 45t-32.5 31t-43 22.5t-40 14.5t-39.5 11q-29 7 -46 12t-49 20t-50.5 33t-33.5 50t-15 72q-2 88 57 140.5t144 52.5q71 0 125.5 -43.5t65.5 -128.5h-30q-27 145 -163 145 q-72 0 -120.5 -45t-48.5 -116q0 -34 11.5 -61t28 -43.5t46 -30.5t52.5 -21t61 -17q66 -18 95 -36q89 -53 89 -162q0 -89 -65 -148t-150 -59q-35 0 -70 12t-66.5 35t-52.5 63t-25 90zM64 905h45l151 -95l150 95h45l-180 -115h-30z" />
<glyph unicode="&#x161;" horiz-adv-x="426" d="M351 405h-28q0 56 -32.5 84.5t-79.5 27.5q-53 0 -85.5 -31.5t-30.5 -79.5q2 -46 29 -69t87 -40q30 -8 43.5 -12t38.5 -16.5t37 -26.5t23 -38.5t13 -57.5q4 -65 -41.5 -112t-113.5 -47q-69 0 -118 45t-45 115h28q0 -62 38 -98t97 -36q58 0 93.5 38t33.5 91q-1 54 -31.5 83 t-96.5 44q-72 21 -106.5 48t-36.5 89q0 64 41 100.5t103 36.5q61 -1 100.5 -37t39.5 -101zM18 720h45l151 -95l150 95h45l-180 -115h-30z" />
<glyph unicode="&#x178;" horiz-adv-x="554" d="M262 0v255l-247 485h33l229 -451l228 451h34l-247 -485v-255h-30zM209 904v-116h-29v116h29zM375 904v-116h-29v116h29z" />
<glyph unicode="&#x17d;" horiz-adv-x="499" d="M472 722l-417 -695h438v-27h-473v18l417 695h-431v27h466v-18zM44 905h45l151 -95l150 95h45l-180 -115h-30z" />
<glyph unicode="&#x17e;" horiz-adv-x="407" d="M12 0v24l329 480h-311v26h347v-27l-329 -477h346v-26h-382zM3 720h45l151 -95l150 95h45l-180 -115h-30z" />
<glyph unicode="&#x192;" d="M341 502h141v-27h-145l-94 -498q-15 -87 -42 -125q-43 -64 -141 -64q-33 0 -60 8l6 28q36 -9 54 -9q35 0 61.5 10.5t41 24.5t25.5 38.5t14.5 40t8.5 42.5l95 504h-144v27h148q0 3 5 31t6.5 34.5t7 30t10 34l12 28t17.5 30t22 23.5q50 40 110 40q15 0 27 -3l-6 -26 q-14 2 -24 2q-59 -4 -90 -36q-10 -9 -17.5 -20t-14 -27t-10.5 -26t-8.5 -31.5t-6 -27.5t-5.5 -30.5t-4 -25.5z" />
<glyph unicode="&#x2c6;" d="M291 725l182 -117h-45l-151 95l-150 -95h-45l181 117h28z" />
<glyph unicode="&#x2c7;" d="M82 720h45l151 -95l150 95h45l-180 -115h-30z" />
<glyph unicode="&#x2c9;" d="M455 675v-30h-356v30h356z" />
<glyph unicode="&#x2d8;" d="M86 701h38q42 -53 153 -53q115 0 154 53h38q-49 -82 -192 -82q-145 0 -191 82z" />
<glyph unicode="&#x2d9;" d="M293 724v-116h-31v116h31z" />
<glyph unicode="&#x2da;" d="M277 762h1q38 0 64.5 -27t26.5 -64q0 -38 -27 -64.5t-65 -26.5q-37 0 -64 27t-27 64q0 38 27 64.5t64 26.5zM277 736h-1q-25 0 -43.5 -19t-18.5 -45t18.5 -44.5t44.5 -18.5q27 0 45.5 18.5t18.5 44.5t-18.5 45t-45.5 19z" />
<glyph unicode="&#x2db;" d="M285 0h29q-52 -38 -69 -57t-17 -49q0 -31 21.5 -51t51.5 -20q23 0 56 13v-29q-24 -13 -56 -13q-47 0 -75.5 26.5t-28.5 70.5q0 70 88 109z" />
<glyph unicode="&#x2dc;" d="M440 685l20 -20q-34 -40 -95 -40q-44 0 -96 20q-44 17 -79 17q-48 0 -75 -32l-20 20q34 40 95 40q44 0 96 -20q44 -17 79 -17q48 0 75 32z" />
<glyph unicode="&#x2dd;" d="M114 611l193 140l16 -20l-193 -141zM255 611l193 140l16 -20l-193 -141z" />
<glyph unicode="&#x3a9;" horiz-adv-x="731" d="M221 30v3q-66 59 -107 151t-41 205q0 165 85.5 263t210.5 98t207 -101.5t82 -257.5q0 -117 -43.5 -211.5t-105.5 -146.5v-3h162v-30h-222v22q73 53 124 150.5t51 214.5q0 56 -16.5 113.5t-47 107.5t-81 81.5t-111.5 31.5q-117 0 -189.5 -96.5t-72.5 -237.5 q0 -112 52.5 -213.5t122.5 -151.5v-22h-221v30h161z" />
<glyph unicode="&#x3bc;" horiz-adv-x="561" d="M78 -181v711h28v-300q0 -36 1.5 -58t10.5 -52.5t27 -50.5q47 -56 133 -56q85 0 132 65q51 66 51 200v252h28v-530h-28v119q-49 -132 -183 -132q-116 0 -172 90v-92v-166h-28z" />
<glyph unicode="&#x3c0;" horiz-adv-x="548" d="M517 515h-88v-362q0 -105 16 -153h-33q-16 30 -16 145v370h-216q-6 -129 -29.5 -289.5t-51.5 -225.5h-34q30 75 52.5 228.5t28.5 286.5q-89 0 -122 -15l-9 22q42 23 127 23h381z" />
<glyph unicode="&#x2010;" horiz-adv-x="266" d="M0 291h266v-29h-266v29z" />
<glyph unicode="&#x2013;" horiz-adv-x="500" d="M35 291h430v-29h-430v29z" />
<glyph unicode="&#x2014;" horiz-adv-x="1000" d="M35 291h930v-29h-930v29z" />
<glyph unicode="&#x2018;" horiz-adv-x="277" d="M123 740l64 -154h-33l-64 154h33z" />
<glyph unicode="&#x2019;" horiz-adv-x="277" d="M90 586l64 154h33l-64 -154h-33z" />
<glyph unicode="&#x201a;" horiz-adv-x="277" d="M90 -72l64 154h33l-64 -154h-33z" />
<glyph unicode="&#x201c;" horiz-adv-x="370" d="M125 740l64 -154h-33l-64 154h33zM214 740l64 -154h-33l-64 154h33z" />
<glyph unicode="&#x201d;" horiz-adv-x="370" d="M92 586l64 154h33l-64 -154h-33zM181 586l64 154h33l-64 -154h-33z" />
<glyph unicode="&#x201e;" horiz-adv-x="370" d="M92 -72l64 154h33l-64 -154h-33zM181 -72l64 154h33l-64 -154h-33z" />
<glyph unicode="&#x2020;" horiz-adv-x="573" d="M301 740v-214h190v-30h-190v-596h-30v596h-188v30h188v214h30z" />
<glyph unicode="&#x2021;" horiz-adv-x="573" d="M303 740v-185h188v-30h-188v-410h188v-30h-188v-185h-30v185h-190v30h190v410h-190v30h190v185h30z" />
<glyph unicode="&#x2022;" horiz-adv-x="375" d="M188 458h1q36 0 61 -25t25 -60t-25 -60t-62 -25t-62.5 25t-25.5 60t25.5 60t62.5 25z" />
<glyph unicode="&#x2026;" horiz-adv-x="1000" d="M152 0v82h30v-82h-30zM485 0v82h30v-82h-30zM818 0v82h30v-82h-30z" />
<glyph unicode="&#x2030;" horiz-adv-x="1089" d="M20 590v1q0 70 46.5 116t116.5 46q71 0 117 -46.5t46 -116.5t-46 -116.5t-117 -46.5t-117 46.5t-46 116.5zM48 590v-1q0 -60 37.5 -98.5t97.5 -38.5t97.5 39t37.5 99t-37.5 99t-97.5 39t-97.5 -39t-37.5 -99zM369 150v1q0 70 46.5 116t116.5 46t116.5 -46.5t46.5 -116.5 t-46.5 -116.5t-116.5 -46.5t-116.5 46.5t-46.5 116.5zM397 150v-1q0 -60 37.5 -98.5t97.5 -38.5t97.5 39t37.5 99t-37.5 99t-97.5 39t-97.5 -39t-37.5 -99zM744 150v1q0 70 46.5 116t116.5 46q71 0 117 -46.5t46 -116.5t-46 -116.5t-117 -46.5t-117 46.5t-46 116.5zM772 150 v-1q0 -60 37.5 -98.5t97.5 -38.5t97.5 39t37.5 99t-37.5 99t-97.5 39t-97.5 -39t-37.5 -99zM601 740l-457 -740h-32l457 740h32z" />
<glyph unicode="&#x2039;" horiz-adv-x="248" d="M50 275l114 194h35l-114 -194l114 -191h-35z" />
<glyph unicode="&#x203a;" horiz-adv-x="248" d="M84 469l114 -194l-114 -191h-35l114 191l-114 194h35z" />
<glyph unicode="&#x2044;" horiz-adv-x="86" d="M-137 0l329 740h30l-330 -740h-29z" />
<glyph unicode="&#x20ac;" d="M419 323l-5 -26h-274q8 -157 59 -223q46 -60 138 -60q82 0 126 44q31 31 43 94h30q-13 -75 -55 -116q-51 -49 -145 -49q-106 0 -162 71q-57 71 -65 239h-82l5 26h76v38q0 46 1 70h-82l5 26h78q7 136 56 210q57 86 171 86q91 0 143 -52q43 -45 50 -116h-29q-8 64 -45 99 q-44 42 -120 42q-97 0 -146 -76q-43 -66 -50 -193h304l-5 -26h-300q-1 -21 -1 -60q0 -7 0.5 -23t0.5 -25h280z" />
<glyph unicode="&#x2113;" horiz-adv-x="467" d="M415 124l24 -15q-63 -116 -171 -116q-79 0 -116.5 60t-37.5 155v16q-9 -8 -30 -26t-32 -28l-17 25q56 48 79 72v306q0 132 40 186.5t94 54.5t83 -43t29 -112q0 -185 -215 -405v-28q0 -107 36 -156.5t91 -49.5q48 0 85.5 31t57.5 73zM145 584v-288q88 98 136.5 183 t48.5 174q0 131 -86 131q-39 0 -69 -49.5t-30 -150.5z" />
<glyph unicode="&#x2122;" horiz-adv-x="990" d="M348 296v444h37l208 -402l209 402h36v-444h-27v405l-210 -405h-16l-210 404v-404h-27zM133 296v420h-124v24h276v-24h-125v-420h-27z" />
<glyph unicode="&#x2126;" horiz-adv-x="731" d="M221 30v3q-66 59 -107 151t-41 205q0 165 85.5 263t210.5 98t207 -101.5t82 -257.5q0 -117 -43.5 -211.5t-105.5 -146.5v-3h162v-30h-222v22q73 53 124 150.5t51 214.5q0 56 -16.5 113.5t-47 107.5t-81 81.5t-111.5 31.5q-117 0 -189.5 -96.5t-72.5 -237.5 q0 -112 52.5 -213.5t122.5 -151.5v-22h-221v30h161z" />
<glyph unicode="&#x212e;" horiz-adv-x="924" d="M887 359h-689q-6 0 -6 -4v-209q0 -11 9 -24q110 -113 261 -113q163 0 274 127h61q-58 -68 -146.5 -108t-189.5 -40q-176 0 -300.5 112t-124.5 270t124.5 270t300.5 112t301 -112t125 -270v-11zM730 386v210q0 15 -10 25q-111 109 -258 109q-150 0 -260 -112 q-10 -12 -10 -26v-206q0 -6 6 -6h528q4 0 4 6z" />
<glyph unicode="&#x2202;" horiz-adv-x="527" d="M101 744l-18 23q66 56 154 56q97 0 167 -100.5t70 -295.5q0 -192 -63.5 -313.5t-182.5 -121.5q-87 0 -134 67t-47 170q0 117 64 191.5t149 74.5q66 0 113 -36.5t66 -74.5h1q1 15 1 53q0 163 -60.5 260t-143.5 97q-78 0 -136 -50zM229 20h1q82 0 136.5 88t66.5 224 q-17 50 -64 92t-109 42q-72 0 -125.5 -68t-53.5 -164t40.5 -155t107.5 -59z" />
<glyph unicode="&#x2206;" horiz-adv-x="642" d="M36 0v33l268 727h35l268 -727v-33h-571zM68 29h502l-174 484q-6 18 -36 93t-38 105h-5q-6 -25 -33.5 -98t-31.5 -84z" />
<glyph unicode="&#x220f;" horiz-adv-x="683" d="M654 707h-115v-809h-32v809h-333v-809h-31v809h-115v31h626v-31z" />
<glyph unicode="&#x2211;" horiz-adv-x="554" d="M528 -102h-505v25l294 392l-279 399v24h474v-31h-424v-4l268 -385l-285 -383v-4h457v-33z" />
<glyph unicode="&#x2212;" horiz-adv-x="600" d="M50 236v28h500v-28h-500z" />
<glyph unicode="&#x2215;" horiz-adv-x="86" d="M-137 0l329 740h30l-330 -740h-29z" />
<glyph unicode="&#x2219;" horiz-adv-x="277" d="M154 296v-81h-30v81h30z" />
<glyph unicode="&#x221a;" horiz-adv-x="562" d="M554 871l-222 -1038h-38l-172 514l-75 -28l-11 26l110 41l149 -436q12 -41 16 -67h1q1 9 5.5 31t5.5 30l201 927h30z" />
<glyph unicode="&#x221e;" horiz-adv-x="789" d="M735 309v-1q0 -66 -44 -108t-105 -42q-32 0 -65.5 18t-56 38.5t-69.5 68.5q-29 -32 -43 -46t-41.5 -37t-54.5 -32.5t-57 -9.5q-60 0 -102.5 43.5t-42.5 103.5q0 64 43 107.5t108 43.5q28 0 54 -10t53 -33t43 -39t44 -47q33 37 46.5 50.5t41.5 37t53.5 32.5t54.5 9 q64 0 102 -41t38 -106zM204 187h1q21 0 40.5 7t39.5 22.5t32.5 27t33 33t27.5 28.5q-60 68 -90 90q-45 33 -92 33q-50 0 -79.5 -37t-28.5 -87q0 -50 32 -83.5t84 -33.5zM591 428h-2q-25 0 -53 -15t-45.5 -31t-42.5 -42t-32 -32q48 -49 67.5 -67t49.5 -36t58 -18 q50 0 80.5 35.5t30.5 83.5q0 58 -31 90t-80 32z" />
<glyph unicode="&#x222b;" horiz-adv-x="332" d="M319 877l-12 -24q-16 12 -38 12q-33 0 -52 -25q-22 -25 -31 -69.5t-9 -127.5q0 -80 6.5 -276.5t6.5 -275.5q0 -149 -50 -215q-29 -36 -76 -36q-32 0 -56 17l12 26q26 -13 46 -13q31 0 50 27q40 51 40 197q0 79 -6 276.5t-6 275.5q0 84 11 133.5t38 78.5q33 35 76 35 q30 0 50 -16z" />
<glyph unicode="&#x2248;" horiz-adv-x="579" d="M506 433l20 -16q-44 -91 -125 -91q-7 0 -13 0.5t-13.5 2.5t-12 2.5t-13 4.5t-12 5t-14 6.5t-13 7t-15.5 8t-16 8.5q-64 35 -100 35q-59 0 -106 -79l-22 15q48 92 134 92q17 0 36 -5.5t30.5 -11t29.5 -16t23 -12.5q4 -2 16.5 -8.5t17 -8.5t15 -7t17 -6.5t16.5 -3t20 -1.5 q32 0 55 19t45 60zM506 273l20 -16q-45 -90 -124 -90q-20 0 -41.5 6.5t-34 13t-47.5 25.5q-68 35 -100 35q-59 0 -106 -79l-22 14q47 93 134 93q18 0 36.5 -5.5t30 -11t29 -15.5t23.5 -13q64 -35 102 -35q32 0 55 18.5t45 59.5z" />
<glyph unicode="&#x2260;" horiz-adv-x="579" d="M400 516l-51 -108h175v-29h-188l-75 -157h263v-29h-276l-58 -123l-24 13l52 110h-164v29h178l74 157h-252v29h265l57 121z" />
<glyph unicode="&#x2264;" horiz-adv-x="579" d="M521 106l-461 233v29l461 233v-38l-424 -207v-3l424 -210v-37zM523 30h-469v31h469v-31z" />
<glyph unicode="&#x2265;" horiz-adv-x="579" d="M60 601l461 -233v-29l-461 -233v37l424 209v2l-424 209v38zM523 30h-469v31h469v-31z" />
<glyph unicode="&#x25ca;" horiz-adv-x="563" d="M503 369l-208 -410h-28l-208 410l208 410h28zM469 368l-169 330q-5 9 -19 48h-2q-15 -39 -20 -48l-166 -328l169 -331q13 -28 19 -47h3q8 27 18 47z" />
<glyph unicode="&#x25fc;" horiz-adv-x="530" d="M0 530h530v-530h-530v530z" />
<glyph unicode="&#xfb01;" horiz-adv-x="393" d="M287 504h-165v-504h-28v504h-87v26h87v53q0 40 9.5 71t28 48.5t34 28.5t39.5 15.5t32 5t23 1.5v-27q-61 -5 -88 -24q-50 -37 -50 -127v-45h193v-530h-28v504zM315 649h-28v91h28v-91z" />
<glyph unicode="&#xfb02;" horiz-adv-x="393" d="M287 504h-165v-504h-28v504h-87v26h87v53q0 40 9.5 71t28 48.5t34 28.5t39.5 15.5t32 5t23 1.5v-27q-61 -5 -88 -24q-50 -37 -50 -127v-45h165v210h28v-740h-28v504z" />
<glyph horiz-adv-x="439" d="M388 745v-333h-28v83q-46 -91 -153 -91q-79 0 -130 52t-51 123q0 72 52.5 123t128.5 51q104 0 153 -93v85h28zM54 575v-1q0 -53 42.5 -98.5t111.5 -45.5q46 0 81.5 22t54.5 58q16 34 16 68q0 30 -13 61q-19 40 -57 64t-83 24q-61 0 -107 -41.5t-46 -110.5z" />
<glyph horiz-adv-x="439" d="M44 575v1q0 75 50 125.5t124 51.5q77 0 127 -51t50 -123q0 -76 -53.5 -125.5t-123.5 -49.5q-71 0 -122.5 50t-51.5 121zM72 576v-1q0 -58 43 -101.5t103 -43.5t104 42.5t45 106.5q-1 61 -42.5 104.5t-104.5 43.5q-61 0 -104.5 -42t-43.5 -109z" />
</font>
</defs>
</svg>
